<?xml version="1.0" encoding="UTF-8"?>
<!DOCTYPE svg PUBLIC "-//W3C//DTD SVG 1.1//EN" "http://www.w3.org/Graphics/SVG/1.1/DTD/svg11.dtd">
<!-- Creator: CorelDRAW -->
<svg xmlns="http://www.w3.org/2000/svg" xml:space="preserve" width="297mm" height="420mm" version="1.1" style="shape-rendering:geometricPrecision; text-rendering:geometricPrecision; image-rendering:optimizeQuality; fill-rule:evenodd; clip-rule:evenodd"
viewBox="0 0 29700 42000"
 xmlns:xlink="http://www.w3.org/1999/xlink"
 xmlns:xodm="http://www.corel.com/coreldraw/odm/2003">
 <defs>
  <style type="text/css">
   <![CDATA[
    .fil1 {fill:#EDEAE5}
    .fil0 {fill:#EDEAE5;fill-rule:nonzero}
   ]]>
  </style>
 </defs>
 <g id="Capa_x0020_1">
  <metadata id="CorelCorpID_0Corel-Layer"/>
  <g id="_1682981370432">
   <path class="fil0" d="M10691.96 22072c-109.33,-256.86 -288.76,-462.43 -528.54,-604.13 -30.59,-18.08 -70.17,-7.76 -88.14,22.74 -18.05,30.56 -7.89,70.12 22.67,88.21 196.12,115.86 346.98,279 447.52,482.69 -263.73,91.77 -551.97,86.4 -815.32,-15.82 -250.41,-97.01 -458.14,-274.04 -592.28,-501.9 624.55,166.45 1295.48,-151.65 1548.46,-760.58 6.56,-15.77 6.54,-33.86 -0.03,-49.55 -7.05,-16.95 -20.45,-30.11 -36.37,-35.31 -253.33,-101.78 -526.98,-121.49 -791.42,-56.96 -34.49,8.45 -55.69,43.38 -47.27,77.86 4.1,16.69 14.43,30.8 29.11,39.73 14.69,8.93 32.03,11.63 48.75,7.55 216.1,-52.76 440.42,-42.88 650.84,28.39 -127.32,263.14 -347.33,467.76 -622.67,578.18 -238.35,95.6 -496.07,111.3 -739.76,47.71 559.34,-323.1 810.11,-1019.29 559.79,-1625.42 -6.37,-15.45 -19.24,-28.09 -35.3,-34.66 -16.05,-6.56 -34.08,-6.57 -49.44,-0.03 -256.87,109.35 -462.45,288.78 -604.08,528.51 -18.05,30.55 -7.89,70.12 22.82,88.28 30.64,17.88 70.12,7.63 88.07,-22.77 115.86,-196.08 278.99,-346.95 482.67,-447.52 95.19,274.23 83.7,572.67 -33.17,843.99 -101.15,234.82 -272.17,427.3 -489.08,554.35l-2.67 2.4c169.49,-621.12 -139.52,-1290.57 -741.31,-1546.77 -15.37,-6.56 -33.4,-6.54 -49.47,0.03 -16.05,6.57 -28.91,19.19 -35.28,34.63 -106.57,258.04 -124.97,534.73 -57.96,804.99 8.54,34.45 43.52,55.54 78.16,46.97 34.39,-8.72 55.36,-43.7 46.85,-77.96 -54.8,-221.06 -46.66,-447.65 28.12,-662.13 260.11,128.87 461.09,349.78 567.9,625.22 92.44,238.38 105.37,495.54 39.71,738.19 -316.36,-557.47 -1006.59,-813.82 -1611.75,-573.49 -16.3,6.55 -28.98,18.81 -35.77,34.76 -6.66,15.71 -6.79,33.78 -0.33,49.59l45.26 110.63c0.8,1.95 1.71,3.89 2.78,5.92 103.57,194.3 256.31,360.05 441.68,479.34 29.77,19.19 69.67,10.55 89.02,-19.31 9.3,-14.46 12.43,-31.68 8.77,-48.49 -3.64,-16.82 -13.61,-31.21 -28.08,-40.51 -165.99,-106.81 -302.97,-255.06 -396.22,-428.78l-18.67 -45.66c274.19,-91.43 571.63,-76.57 840.93,42.7 232.66,103.03 422.5,274.72 546.8,491.05 -617.32,-169.51 -1283.04,144.41 -1539.14,737.85 -6.83,15.92 -7.03,33.53 -0.57,49.53 6.38,15.88 19.09,28.76 34.84,35.33l109.89 46.07c2.06,0.89 4.14,1.65 6.47,2.37 284.24,86.53 592.73,72.02 868.67,-40.88 0.04,-0.01 0.08,-0.03 0.1,-0.04l2.22 -0.9c215.59,-88.4 416.05,-245.53 555.77,-430.47 10.37,-13.72 14.77,-30.66 12.4,-47.7 -2.37,-17.05 -11.24,-32.14 -24.94,-42.5 -13.71,-10.37 -30.64,-14.79 -47.69,-12.41 -17.08,2.35 -32.19,11.26 -42.56,24.98 -125.69,166.38 -307.39,309.1 -501.56,388.81l-3.05 1.25c-247.43,101.07 -523.92,114.39 -778.74,37.56l-45.5 -19.06c129.29,-258.97 349.3,-459.2 623.15,-566.22 278.77,-108.84 582.61,-108.47 857.37,0.67 137.29,301.45 388.58,538.14 695.24,663.6 0.04,0.02 0.12,0.05 0.15,0.06 322.81,132.06 676.73,132.05 996.55,-0.01 15.76,-6.54 28.52,-19.34 34.99,-35.14 6.46,-15.81 6.33,-33.89 -0.36,-49.61z"/>
   <circle class="fil1" cx="9015.47" cy="22020.08" r="100"/>
  </g>
 </g>
</svg>
